<svg width="24" height="24" viewBox="0 0 24 24" fill="none" xmlns="http://www.w3.org/2000/svg">
<path d="M12 2C9.34844 2 6.80312 3.05422 4.92969 4.92891C3.05432 6.80434 2.00052 9.34778 2 12C2 14.6511 3.05469 17.1964 4.92969 19.0711C6.80312 20.9458 9.34844 22 12 22C14.6516 22 17.1969 20.9458 19.0703 19.0711C20.9453 17.1964 22 14.6511 22 12C22 9.34891 20.9453 6.80359 19.0703 4.92891C17.1969 3.05422 14.6516 2 12 2Z" fill="url(#paint0_linear_448_743)"/>
<path d="M5.43184 11.873C8.93059 10.349 11.2631 9.34424 12.4293 8.8588C15.7631 7.47261 16.455 7.23186 16.9068 7.2237C17.0062 7.22211 17.2275 7.24667 17.3718 7.36339C17.4918 7.46183 17.5256 7.59495 17.5425 7.68842C17.5575 7.7818 17.5781 7.99461 17.5612 8.16074C17.3812 10.0582 16.5993 14.6629 16.2018 16.7882C16.035 17.6874 15.7031 17.9889 15.3825 18.0184C14.685 18.0825 14.1562 17.5579 13.4812 17.1155C12.4256 16.4231 11.8293 15.9922 10.8037 15.3167C9.61872 14.5359 10.3875 14.1067 11.0625 13.4055C11.2387 13.2219 14.31 10.4291 14.3681 10.1758C14.3756 10.1441 14.3831 10.026 14.3118 9.96373C14.2425 9.9013 14.1393 9.92267 14.0643 9.93955C13.9575 9.96355 12.2718 11.0788 9.00184 13.2851C8.52372 13.614 8.09059 13.7743 7.70059 13.7659C7.27309 13.7567 6.44809 13.5236 5.83497 13.3245C5.08497 13.0802 4.48684 12.951 4.53934 12.536C4.56559 12.32 4.86372 12.099 5.43184 11.873Z" fill="white"/>
<defs>
<linearGradient id="paint0_linear_448_743" x1="1002" y1="2" x2="1002" y2="2002" gradientUnits="userSpaceOnUse">
<stop stop-color="#2AABEE"/>
<stop offset="1" stop-color="#229ED9"/>
</linearGradient>
</defs>
</svg>
