<svg width="14" height="14" viewBox="0 0 14 14" fill="none" xmlns="http://www.w3.org/2000/svg">
<path d="M1.9211 7.50002L7.3601 12.938C7.45743 13.036 7.50843 13.151 7.5131 13.283C7.5171 13.415 7.46377 13.536 7.3531 13.646C7.2431 13.7527 7.12543 13.807 7.0001 13.809C6.87477 13.811 6.75677 13.7567 6.6461 13.646L0.566102 7.56602C0.478768 7.47869 0.417435 7.38935 0.382102 7.29802C0.346768 7.20735 0.329102 7.10802 0.329102 7.00002C0.329102 6.89202 0.346768 6.79269 0.382102 6.70202C0.417435 6.61068 0.478435 6.52169 0.565102 6.43502L6.6461 0.354019C6.73943 0.260685 6.8531 0.210685 6.9871 0.204018C7.1211 0.197352 7.24343 0.247352 7.3541 0.354019C7.4641 0.464019 7.5191 0.583018 7.5191 0.711018C7.5191 0.839018 7.4641 0.957685 7.3541 1.06702L1.9201 6.50002H13.5001C13.6421 6.50002 13.7611 6.54769 13.8571 6.64302C13.9524 6.73902 14.0001 6.85802 14.0001 7.00002C14.0001 7.14202 13.9524 7.26102 13.8571 7.35702C13.7611 7.45235 13.6421 7.50002 13.5001 7.50002H1.9211Z" fill="#1E4759"/>
</svg>
