<svg width="25" height="25" viewBox="0 0 25 25" fill="none" xmlns="http://www.w3.org/2000/svg">
    <path fill-rule="evenodd" clip-rule="evenodd" d="M9.59203 15.3926C7.92062 15.6821 6.49902 16.8527 5.90892 17.977C5.74208 18.2949 5.34916 18.4173 5.03129 18.2505C4.71343 18.0836 4.591 17.6907 4.75783 17.3728C5.53136 15.8991 7.29159 14.4716 9.37017 14.1116C11.5183 13.7396 13.9183 14.5193 15.8659 17.3022C16.0717 17.5963 16.0002 18.0016 15.7061 18.2074C15.4119 18.4133 15.0067 18.3417 14.8008 18.0476C13.112 15.6344 11.1939 15.1151 9.59203 15.3926Z" fill="white"/>
    <path fill-rule="evenodd" clip-rule="evenodd" d="M10.3334 13.375C11.8245 13.375 13.0334 12.1661 13.0334 10.675C13.0334 9.18379 11.8245 7.97496 10.3334 7.97496C8.84221 7.97496 7.63337 9.18379 7.63337 10.675C7.63337 12.1661 8.84221 13.375 10.3334 13.375ZM10.3334 14.675C12.5425 14.675 14.3334 12.8841 14.3334 10.675C14.3334 8.46582 12.5425 6.67496 10.3334 6.67496C8.12424 6.67496 6.33337 8.46582 6.33337 10.675C6.33337 12.8841 8.12424 14.675 10.3334 14.675Z" fill="white"/>
    <path fill-rule="evenodd" clip-rule="evenodd" d="M20.3168 12.5001C20.3168 12.7762 20.0929 13.0001 19.8168 13.0001H16.4834C16.2073 13.0001 15.9834 12.7762 15.9834 12.5001C15.9834 12.2239 16.2073 12.0001 16.4834 12.0001H19.8168C20.0929 12.0001 20.3168 12.2239 20.3168 12.5001Z" fill="white"/>
    <path fill-rule="evenodd" clip-rule="evenodd" d="M18.1501 14.6667C17.874 14.6667 17.6501 14.4428 17.6501 14.1667L17.6501 10.8333C17.6501 10.5572 17.874 10.3333 18.1501 10.3333C18.4263 10.3333 18.6501 10.5572 18.6501 10.8333L18.6501 14.1667C18.6501 14.4428 18.4263 14.6667 18.1501 14.6667Z" fill="white"/>
</svg>
